<svg width="346" height="195" viewBox="0 0 346 195" fill="none" xmlns="http://www.w3.org/2000/svg">
<g filter="url(#filter0_i_2_25)">
<rect x="27" y="36" width="292" height="123" rx="23" fill="#0067C6"/>
</g>
<rect x="29.5" y="38.5" width="287" height="118" rx="20.5" stroke="#0A0049" stroke-width="5"/>
<g filter="url(#filter1_d_2_25)">
<path d="M84.9062 69.4688C85.6094 69.6875 86.25 70 86.8281 70.4062C87.4062 70.8125 87.8984 71.3359 88.3047 71.9766C88.7109 72.6016 89.0234 73.3438 89.2422 74.2031C89.4609 75.0625 89.5703 76.0469 89.5703 77.1562V78.8438C89.5703 84.2812 86.8516 87 81.4141 87H63.0156V53.3906H80.4531C85.8906 53.3906 88.6094 56.1172 88.6094 61.5703V62.1797C88.6094 64.0703 88.3047 65.6172 87.6953 66.8203C87.1016 68.0078 86.1719 68.8906 84.9062 69.4688ZM67.7266 72.3516V82.2891H81.2734C82.5391 82.2891 83.4531 81.9922 84.0156 81.3984C84.5781 80.8047 84.8594 79.875 84.8594 78.6094V76.0078C84.8594 74.7266 84.5781 73.7969 84.0156 73.2188C83.4531 72.6406 82.5391 72.3516 81.2734 72.3516H67.7266ZM67.7266 58.1016V67.6641H80.6406C81.7969 67.6172 82.625 67.3047 83.125 66.7266C83.6406 66.1328 83.8984 65.2266 83.8984 64.0078V61.8047C83.8984 60.5234 83.6172 59.5859 83.0547 58.9922C82.4922 58.3984 81.5781 58.1016 80.3125 58.1016H67.7266ZM96.2969 76.1016C96.2969 75.4609 96.4141 74.8672 96.6484 74.3203C96.8984 73.7578 97.2266 73.2656 97.6328 72.8438C98.0547 72.4219 98.5469 72.0938 99.1094 71.8594C99.6719 71.6094 100.266 71.4844 100.891 71.4844H112.797V66.6562H97.7266V62.0391H112.797C113.438 62.0391 114.039 62.1641 114.602 62.4141C115.164 62.6484 115.648 62.9766 116.055 63.3984C116.477 63.8047 116.805 64.2891 117.039 64.8516C117.289 65.4141 117.414 66.0156 117.414 66.6562V87H112.797V82.7812C112.75 83.3594 112.594 83.9062 112.328 84.4219C112.062 84.9375 111.719 85.3906 111.297 85.7812C110.891 86.1562 110.422 86.4531 109.891 86.6719C109.359 86.8906 108.797 87 108.203 87H100.891C100.266 87 99.6719 86.8828 99.1094 86.6484C98.5469 86.3984 98.0547 86.0703 97.6328 85.6641C97.2266 85.2422 96.8984 84.75 96.6484 84.1875C96.4141 83.625 96.2969 83.0234 96.2969 82.3828V76.1016ZM100.891 82.3828H112.797V76.1016H100.891V82.3828ZM123.672 62.0391H129.766V54.3516H134.383V62.0391H142.586V66.6562H134.383V82.3828H142.586V87H134.383C133.758 87 133.164 86.8828 132.602 86.6484C132.039 86.3984 131.547 86.0703 131.125 85.6641C130.703 85.2422 130.367 84.75 130.117 84.1875C129.883 83.625 129.766 83.0234 129.766 82.3828V66.6562H123.672V62.0391ZM148.844 62.0391H154.938V54.3516H159.555V62.0391H167.758V66.6562H159.555V82.3828H167.758V87H159.555C158.93 87 158.336 86.8828 157.773 86.6484C157.211 86.3984 156.719 86.0703 156.297 85.6641C155.875 85.2422 155.539 84.75 155.289 84.1875C155.055 83.625 154.938 83.0234 154.938 82.3828V66.6562H148.844V62.0391ZM180.062 52.4297V87H175.469V52.4297H180.062ZM208.867 76.875H192.344V82.3828H208.867V87H192.344C191.719 87 191.125 86.8828 190.562 86.6484C190 86.3984 189.508 86.0703 189.086 85.6641C188.68 85.2422 188.352 84.75 188.102 84.1875C187.867 83.625 187.75 83.0234 187.75 82.3828V66.6562C187.75 66.0156 187.867 65.4141 188.102 64.8516C188.352 64.2891 188.68 63.8047 189.086 63.3984C189.508 62.9766 190 62.6484 190.562 62.4141C191.125 62.1641 191.719 62.0391 192.344 62.0391H204.25C204.891 62.0391 205.492 62.1641 206.055 62.4141C206.617 62.6484 207.102 62.9766 207.508 63.3984C207.93 63.8047 208.258 64.2891 208.492 64.8516C208.742 65.4141 208.867 66.0156 208.867 66.6562V76.875ZM192.344 66.6562V72.2578H204.25V66.6562H192.344ZM260.242 82.1953C260.242 82.8516 260.117 83.4766 259.867 84.0703C259.617 84.6484 259.273 85.1562 258.836 85.5938C258.398 86.0312 257.883 86.375 257.289 86.625C256.711 86.875 256.094 87 255.438 87H236.242C235.586 87 234.961 86.875 234.367 86.625C233.789 86.375 233.281 86.0312 232.844 85.5938C232.406 85.1562 232.062 84.6484 231.812 84.0703C231.562 83.4766 231.438 82.8516 231.438 82.1953V58.1953C231.438 57.5391 231.562 56.9219 231.812 56.3438C232.062 55.75 232.406 55.2422 232.844 54.8203C233.281 54.3828 233.789 54.0391 234.367 53.7891C234.961 53.5234 235.586 53.3906 236.242 53.3906H255.438C256.094 53.3906 256.711 53.5234 257.289 53.7891C257.883 54.0391 258.398 54.3828 258.836 54.8203C259.273 55.2422 259.617 55.75 259.867 56.3438C260.117 56.9219 260.242 57.5391 260.242 58.1953V82.1953ZM236.242 58.1953V82.1953H255.438V58.1953H236.242ZM277.68 57.0469V62.0391H285.883V66.6562H277.68V87H273.062V66.6562H266.969V62.0391H273.062V57.0469C273.062 56.4062 273.18 55.8125 273.414 55.2656C273.664 54.7031 274 54.2109 274.422 53.7891C274.844 53.3672 275.336 53.0391 275.898 52.8047C276.461 52.5547 277.055 52.4297 277.68 52.4297H285.883V57.0469H277.68ZM56.4766 100.391H61.2812V129.195H80.4766V100.391H85.2812V129.195C85.2812 129.852 85.1562 130.477 84.9062 131.07C84.6562 131.648 84.3125 132.156 83.875 132.594C83.4375 133.031 82.9219 133.375 82.3281 133.625C81.75 133.875 81.1328 134 80.4766 134H61.2812C60.625 134 60 133.875 59.4062 133.625C58.8281 133.375 58.3203 133.031 57.8828 132.594C57.4453 132.156 57.1016 131.648 56.8516 131.07C56.6016 130.477 56.4766 129.852 56.4766 129.195V100.391ZM115.539 134H110.922V113.656H98.0547V134H93.4609V109.039H98.0547V113.445C98.0859 112.836 98.2266 112.266 98.4766 111.734C98.7266 111.188 99.0547 110.719 99.4609 110.328C99.8828 109.922 100.367 109.609 100.914 109.391C101.461 109.156 102.047 109.039 102.672 109.039H110.922C111.562 109.039 112.164 109.164 112.727 109.414C113.289 109.648 113.773 109.977 114.18 110.398C114.602 110.805 114.93 111.289 115.164 111.852C115.414 112.414 115.539 113.016 115.539 113.656V134ZM128.078 109.039V134H123.461V109.039H128.078ZM123.227 99.4297H128.312V104.234H123.227V99.4297ZM143.125 134L133.141 109.039H137.945L145.516 128.469L153.109 109.039H157.914L147.93 134H143.125ZM183.859 123.875H167.336V129.383H183.859V134H167.336C166.711 134 166.117 133.883 165.555 133.648C164.992 133.398 164.5 133.07 164.078 132.664C163.672 132.242 163.344 131.75 163.094 131.188C162.859 130.625 162.742 130.023 162.742 129.383V113.656C162.742 113.016 162.859 112.414 163.094 111.852C163.344 111.289 163.672 110.805 164.078 110.398C164.5 109.977 164.992 109.648 165.555 109.414C166.117 109.164 166.711 109.039 167.336 109.039H179.242C179.883 109.039 180.484 109.164 181.047 109.414C181.609 109.648 182.094 109.977 182.5 110.398C182.922 110.805 183.25 111.289 183.484 111.852C183.734 112.414 183.859 113.016 183.859 113.656V123.875ZM167.336 113.656V119.258H179.242V113.656H167.336ZM196.164 113.656V134H191.57V109.039H196.164V113.445C196.195 112.836 196.336 112.266 196.586 111.734C196.836 111.188 197.164 110.719 197.57 110.328C197.992 109.922 198.477 109.609 199.023 109.391C199.57 109.156 200.156 109.039 200.781 109.039H205.68C206.32 109.039 206.914 109.164 207.461 109.414C208.023 109.648 208.516 109.977 208.938 110.398C209.359 110.805 209.688 111.289 209.922 111.852C210.172 112.414 210.297 113.016 210.297 113.656V117.875H205.68V113.656H196.164ZM231.109 129.383V123.594H220.164C219.523 123.594 218.922 123.477 218.359 123.242C217.797 122.992 217.305 122.664 216.883 122.258C216.477 121.836 216.148 121.344 215.898 120.781C215.664 120.219 215.547 119.617 215.547 118.977V113.656C215.547 113.016 215.664 112.414 215.898 111.852C216.148 111.289 216.477 110.805 216.883 110.398C217.305 109.977 217.797 109.648 218.359 109.414C218.922 109.164 219.523 109.039 220.164 109.039H234.766V113.656H220.164V118.977H231.109C231.75 118.977 232.344 119.102 232.891 119.352C233.453 119.586 233.945 119.914 234.367 120.336C234.789 120.742 235.117 121.227 235.352 121.789C235.602 122.352 235.727 122.953 235.727 123.594V129.383C235.727 130.023 235.602 130.625 235.352 131.188C235.117 131.75 234.789 132.242 234.367 132.664C233.945 133.07 233.453 133.398 232.891 133.648C232.344 133.883 231.75 134 231.109 134H215.547V129.383H231.109ZM264.062 123.875H247.539V129.383H264.062V134H247.539C246.914 134 246.32 133.883 245.758 133.648C245.195 133.398 244.703 133.07 244.281 132.664C243.875 132.242 243.547 131.75 243.297 131.188C243.062 130.625 242.945 130.023 242.945 129.383V113.656C242.945 113.016 243.062 112.414 243.297 111.852C243.547 111.289 243.875 110.805 244.281 110.398C244.703 109.977 245.195 109.648 245.758 109.414C246.32 109.164 246.914 109.039 247.539 109.039H259.445C260.086 109.039 260.688 109.164 261.25 109.414C261.812 109.648 262.297 109.977 262.703 110.398C263.125 110.805 263.453 111.289 263.688 111.852C263.938 112.414 264.062 113.016 264.062 113.656V123.875ZM247.539 113.656V119.258H259.445V113.656H247.539ZM286.844 129.383V123.594H275.898C275.258 123.594 274.656 123.477 274.094 123.242C273.531 122.992 273.039 122.664 272.617 122.258C272.211 121.836 271.883 121.344 271.633 120.781C271.398 120.219 271.281 119.617 271.281 118.977V113.656C271.281 113.016 271.398 112.414 271.633 111.852C271.883 111.289 272.211 110.805 272.617 110.398C273.039 109.977 273.531 109.648 274.094 109.414C274.656 109.164 275.258 109.039 275.898 109.039H290.5V113.656H275.898V118.977H286.844C287.484 118.977 288.078 119.102 288.625 119.352C289.188 119.586 289.68 119.914 290.102 120.336C290.523 120.742 290.852 121.227 291.086 121.789C291.336 122.352 291.461 122.953 291.461 123.594V129.383C291.461 130.023 291.336 130.625 291.086 131.188C290.852 131.75 290.523 132.242 290.102 132.664C289.68 133.07 289.188 133.398 288.625 133.648C288.078 133.883 287.484 134 286.844 134H271.281V129.383H286.844Z" fill="white"/>
</g>
<defs>
<filter id="filter0_i_2_25" x="27" y="36" width="295" height="127" filterUnits="userSpaceOnUse" color-interpolation-filters="sRGB">
<feFlood flood-opacity="0" result="BackgroundImageFix"/>
<feBlend mode="normal" in="SourceGraphic" in2="BackgroundImageFix" result="shape"/>
<feColorMatrix in="SourceAlpha" type="matrix" values="0 0 0 0 0 0 0 0 0 0 0 0 0 0 0 0 0 0 127 0" result="hardAlpha"/>
<feMorphology radius="3" operator="erode" in="SourceAlpha" result="effect1_innerShadow_2_25"/>
<feOffset dx="3" dy="4"/>
<feGaussianBlur stdDeviation="2.5"/>
<feComposite in2="hardAlpha" operator="arithmetic" k2="-1" k3="1"/>
<feColorMatrix type="matrix" values="0 0 0 0 0 0 0 0 0 0 0 0 0 0 0 0 0 0 0.25 0"/>
<feBlend mode="normal" in2="shape" result="effect1_innerShadow_2_25"/>
</filter>
<filter id="filter1_d_2_25" x="52.4766" y="52.4297" width="242.984" height="89.5703" filterUnits="userSpaceOnUse" color-interpolation-filters="sRGB">
<feFlood flood-opacity="0" result="BackgroundImageFix"/>
<feColorMatrix in="SourceAlpha" type="matrix" values="0 0 0 0 0 0 0 0 0 0 0 0 0 0 0 0 0 0 127 0" result="hardAlpha"/>
<feOffset dy="4"/>
<feGaussianBlur stdDeviation="2"/>
<feComposite in2="hardAlpha" operator="out"/>
<feColorMatrix type="matrix" values="0 0 0 0 0 0 0 0 0 0 0 0 0 0 0 0 0 0 0.25 0"/>
<feBlend mode="normal" in2="BackgroundImageFix" result="effect1_dropShadow_2_25"/>
<feBlend mode="normal" in="SourceGraphic" in2="effect1_dropShadow_2_25" result="shape"/>
</filter>
</defs>
</svg>
